{
  "accessors": [
    {
      "bufferView": 2,
      "componentType": 5126,
      "count": 1323,
      "max": [
        0.88253802061080933,
        -0.08949589729309082,
        0.87655401229858398
      ],
      "min": [
        -0.88253802061080933,
        -1,
        -0.61255800724029541
      ],
      "type": "VEC3"
    },
    {
      "bufferView": 2,
      "byteOffset": 15876,
      "componentType": 5126,
      "count": 1323,
      "max": [
        1,
        0.9997403621673584,
        0.9997403621673584
      ],
      "min": [
        -1,
        -1,
        -0.9997403621673584
      ],
      "type": "VEC3"
    },
    {
      "bufferView": 3,
      "componentType": 5126,
      "count": 1323,
      "max": [
        1,
        0.99823832511901855,
        1,
        1
      ],
      "min": [
        -0.70527786016464233,
        -0.9763723611831665,
        -1,
        1
      ],
      "type": "VEC4"
    },
    {
      "bufferView": 1,
      "componentType": 5126,
      "count": 1323,
      "max": [
        0.99284601211547852,
        0.89160501956939697
      ],
      "min": [
        0.0091952299699187279,
        0.0079530002549290657
      ],
      "type": "VEC2"
    },
    {
      "bufferView": 0,
      "componentType": 5125,
      "count": 2016,
      "max": [
        1322
      ],
      "min": [
        0
      ],
      "type": "SCALAR"
    },
    {
      "bufferView": 2,
      "byteOffset": 31752,
      "componentType": 5126,
      "count": 1342,
      "max": [
        0.84245902299880981,
        1,
        0.84133601188659668
      ],
      "min": [
        -0.84245902299880981,
        -0.48817500472068787,
        -0.87655401229858398
      ],
      "type": "VEC3"
    },
    {
      "bufferView": 2,
      "byteOffset": 47856,
      "componentType": 5126,
      "count": 1342,
      "max": [
        1,
        0.99997836351394653,
        0.99990785121917725
      ],
      "min": [
        -1,
        -0.99993765354156494,
        -0.99970489740371704
      ],
      "type": "VEC3"
    },
    {
      "bufferView": 3,
      "byteOffset": 21168,
      "componentType": 5126,
      "count": 1342,
      "max": [
        1,
        0.99990218877792358,
        0.99989348649978638,
        1
      ],
      "min": [
        -0.99908226728439331,
        -0.99970310926437378,
        -0.99999547004699707,
        1
      ],
      "type": "VEC4"
    },
    {
      "bufferView": 1,
      "byteOffset": 10584,
      "componentType": 5126,
      "count": 1342,
      "max": [
        0.98680102825164795,
        0.9906880259513855
      ],
      "min": [
        0.001400680048391223,
        0.011951399967074394
      ],
      "type": "VEC2"
    },
    {
      "bufferView": 0,
      "byteOffset": 8064,
      "componentType": 5125,
      "count": 6987,
      "max": [
        1341
      ],
      "min": [
        0
      ],
      "type": "SCALAR"
    }
  ],
  "asset": {
    "extras": {
      "author": "harmonic100100 (https://sketchfab.com/harmonic100100)",
      "license": "CC-BY-4.0 (http://creativecommons.org/licenses/by/4.0/)",
      "source": "https://sketchfab.com/models/07600230a497427aade1f60e78116819",
      "title": "Mid Century Modern Leather Chair"
    },
    "generator": "Sketchfab-3.50.4",
    "version": "2.0"
  },
  "bufferViews": [
    {
      "buffer": 0,
      "byteLength": 36012,
      "byteOffset": 0,
      "name": "floatBufferViews",
      "target": 34963
    },
    {
      "buffer": 0,
      "byteLength": 21320,
      "byteOffset": 36012,
      "byteStride": 8,
      "name": "floatBufferViews",
      "target": 34962
    },
    {
      "buffer": 0,
      "byteLength": 63960,
      "byteOffset": 57332,
      "byteStride": 12,
      "name": "floatBufferViews",
      "target": 34962
    },
    {
      "buffer": 0,
      "byteLength": 42640,
      "byteOffset": 121292,
      "byteStride": 16,
      "name": "floatBufferViews",
      "target": 34962
    }
  ],
  "buffers": [
    {
      "byteLength": 163932,
      "uri": "scene.bin"
    }
  ],
  "images": [
    {
      "uri": "textures/chair_metallicRoughness.png"
    },
    {
      "uri": "textures/chair_baseColor.jpeg"
    },
    {
      "uri": "textures/chair_normal.png"
    },
    {
      "uri": "textures/chairwood_metallicRoughness.png"
    },
    {
      "uri": "textures/chairwood_baseColor.jpeg"
    },
    {
      "uri": "textures/chairwood_normal.png"
    }
  ],
  "materials": [
    {
      "doubleSided": false,
      "name": "chair",
      "normalTexture": {
        "index": 2,
        "scale": 1,
        "texCoord": 0
      },
      "occlusionTexture": {
        "index": 0,
        "strength": 1,
        "texCoord": 0
      },
      "pbrMetallicRoughness": {
        "baseColorFactor": [
          1,
          1,
          1,
          1
        ],
        "baseColorTexture": {
          "index": 1,
          "texCoord": 0
        },
        "metallicFactor": 1,
        "metallicRoughnessTexture": {
          "index": 0,
          "texCoord": 0
        },
        "roughnessFactor": 1
      }
    },
    {
      "doubleSided": false,
      "name": "chairwood",
      "normalTexture": {
        "index": 5,
        "scale": 1,
        "texCoord": 0
      },
      "occlusionTexture": {
        "index": 3,
        "strength": 1,
        "texCoord": 0
      },
      "pbrMetallicRoughness": {
        "baseColorFactor": [
          1,
          1,
          1,
          1
        ],
        "baseColorTexture": {
          "index": 4,
          "texCoord": 0
        },
        "metallicFactor": 1,
        "metallicRoughnessTexture": {
          "index": 3,
          "texCoord": 0
        },
        "roughnessFactor": 1
      }
    }
  ],
  "meshes": [
    {
      "name": "defaultMaterial",
      "primitives": [
        {
          "attributes": {
            "NORMAL": 1,
            "POSITION": 0,
            "TANGENT": 2,
            "TEXCOORD_0": 3
          },
          "indices": 4,
          "material": 1,
          "mode": 4
        }
      ]
    },
    {
      "name": "defaultMaterial",
      "primitives": [
        {
          "attributes": {
            "NORMAL": 6,
            "POSITION": 5,
            "TANGENT": 7,
            "TEXCOORD_0": 8
          },
          "indices": 9,
          "material": 0,
          "mode": 4
        }
      ]
    }
  ],
  "nodes": [
    {
      "children": [
        1
      ],
      "name": "RootNode (gltf orientation matrix)",
      "rotation": [
        -0.70710678118654746,
        -0,
        -0,
        0.70710678118654757
      ]
    },
    {
      "children": [
        2
      ],
      "name": "RootNode (model correction matrix)"
    },
    {
      "children": [
        3,
        5
      ],
      "matrix": [
        1,
        0,
        0,
        0,
        0,
        -4.3711390063094768e-08,
        0.999999999999999,
        0,
        0,
        -0.999999999999999,
        -4.3711390063094768e-08,
        0,
        0,
        0,
        0,
        1
      ],
      "name": "Collada visual scene group"
    },
    {
      "children": [
        4
      ],
      "name": "MidCenturyChair_Base"
    },
    {
      "mesh": 0,
      "name": "defaultMaterial"
    },
    {
      "children": [
        6
      ],
      "name": "MidCenturyChair_Base"
    },
    {
      "mesh": 1,
      "name": "defaultMaterial"
    }
  ],
  "samplers": [
    {
      "magFilter": 9729,
      "minFilter": 9987,
      "wrapS": 10497,
      "wrapT": 10497
    }
  ],
  "scene": 0,
  "scenes": [
    {
      "name": "OSG_Scene",
      "nodes": [
        0
      ]
    }
  ],
  "textures": [
    {
      "sampler": 0,
      "source": 0
    },
    {
      "sampler": 0,
      "source": 1
    },
    {
      "sampler": 0,
      "source": 2
    },
    {
      "sampler": 0,
      "source": 3
    },
    {
      "sampler": 0,
      "source": 4
    },
    {
      "sampler": 0,
      "source": 5
    }
  ]
}

